# File created by Blade
# Date/Time:  Thu Sep 25 15:55:53 2014
# Frame Rate: 120.000 fps
#------------------------------------------------------
:FULLY-SPECIFIED
:DEGREES
377
root -2.394109 32.566496 2.133732 10.848284 -0.348923 2.266946
Spine -9.669459 3.654444 1.181795
Head -14.125481 -7.196199 13.877806
LeftShoulder -5.025903 15.598122 19.879335
LeftArm 38.598996 0.968582 -72.642908
LeftForeArm 17.284357 -0.000000 89.025006
LeftHand -25.476043 -0.000000 2.240965
LeftHandThumb1 -26.253704 0.000000 33.147579
RightShoulder -18.124592 6.115567 -18.855742
RightArm -8.618744 -17.868743 66.708383
RightForeArm -26.071903 -0.000000 61.489935
RightHand -1.570074 0.000000 0.192070
RightHandThumb1 -24.326973 -0.000000 -32.862282
LeftUpLeg -9.569039 7.542827 -0.340489
LeftLeg 1.094416 -0.000000 -0.000000
LeftFoot -12.776664 16.178454 -25.968353
LeftToeBase 2.978603 -0.000000 -0.000000
RightUpLeg -17.677859 -2.341539 0.263082
RightLeg 25.126640 -0.000000 -0.000000
RightFoot -18.442221 -8.155117 -5.184839
RightToeBase -2.986139 -0.000000 0.000000
378
root -2.413903 32.561530 2.056794 11.196579 -0.196773 2.558009
Spine -9.851708 3.461151 1.454498
Head -14.406867 -7.023077 13.642374
LeftShoulder -4.706341 15.274804 20.119744
LeftArm 39.295962 1.308649 -73.041344
LeftForeArm 17.720613 -0.000000 89.377564
LeftHand -25.311897 -0.000000 1.722801
LeftHandThumb1 -26.253704 0.000000 33.147579
RightShoulder -18.012772 6.244971 -18.909370
RightArm -8.752808 -17.137515 66.166770
RightForeArm -25.705961 -0.000000 60.832088
RightHand -1.545540 -0.000000 -0.194414
RightHandThumb1 -24.326973 -0.000000 -32.862282
LeftUpLeg -10.181613 6.631850 -0.526553
LeftLeg 1.316877 -0.000000 -0.000000
LeftFoot -12.935550 16.868239 -26.054597
LeftToeBase 3.094144 -0.000000 -0.000000
RightUpLeg -18.392613 -2.502791 0.122646
RightLeg 25.598050 -0.000000 -0.000000
RightFoot -18.495694 -8.514843 -5.077920
RightToeBase -2.682236 -0.000000 0.000000
379
root -2.418649 32.557953 1.971339 11.568911 -0.008044 2.976048
Spine -10.006603 3.228807 1.678605
Head -14.764985 -6.838917 13.306952
LeftShoulder -4.372448 14.945876 20.335641
LeftArm 40.043490 1.688761 -73.427503
LeftForeArm 18.237149 0.000000 89.646061
LeftHand -25.217495 0.000000 1.384048
LeftHandThumb1 -26.253704 0.000000 33.147579
RightShoulder -17.810781 6.443103 -19.004323
RightArm -8.924680 -16.281886 65.552317
RightForeArm -25.281274 -0.000000 60.316693
RightHand -1.359072 -0.000000 0.203428
RightHandThumb1 -24.326973 -0.000000 -32.862282
LeftUpLeg -10.869131 5.784528 -0.859622
LeftLeg 1.596460 -0.000000 -0.000000
LeftFoot -13.009396 17.480453 -26.140047
LeftToeBase 3.342856 -0.000000 -0.000000
RightUpLeg -19.177560 -2.756466 -0.164770
RightLeg 26.145386 -0.000000 -0.000000
RightFoot -18.533208 -8.909812 -5.104470
RightToeBase -2.466136 -0.000000 0.000000
380
root -2.418513 32.552540 1.879082 11.984310 0.247198 3.435766
Spine -10.160952 3.003324 1.922492
Head -15.242845 -6.630963 12.916886
LeftShoulder -3.978419 14.522872 20.567847
LeftArm 40.765866 2.157420 -73.783220
LeftForeArm 18.800633 0.000000 89.756050
LeftHand -25.069187 -0.000000 1.129244
LeftHandThumb1 -26.253704 0.000000 33.147579
RightShoulder -17.666381 6.691333 -19.175809
RightArm -9.044281 -15.383384 64.863903
RightForeArm -25.065947 0.000000 59.860980
RightHand -1.293094 0.000000 0.296054
RightHandThumb1 -24.326973 -0.000000 -32.862282
LeftUpLeg -11.599619 4.884797 -1.216774
LeftLeg 1.869108 -0.000000 -0.000000
LeftFoot -13.015517 18.026924 -26.198457
LeftToeBase 3.427074 -0.000000 -0.000000
RightUpLeg -20.008641 -3.021374 -0.513957
RightLeg 26.713408 -0.000000 -0.000000
RightFoot -18.538568 -9.363131 -5.194382
RightToeBase -2.512598 -0.000000 0.000000
381
root -2.407906 32.547198 1.775958 12.368623 0.548036 3.949158
Spine -10.204080 2.714393 2.223288
Head -15.801135 -6.333997 12.398683
LeftShoulder -3.618076 14.196836 20.803211
LeftArm 41.645653 2.681169 -74.151391
LeftForeArm 19.457807 -0.000000 89.745936
LeftHand -25.066234 -0.000000 0.894735
LeftHandThumb1 -26.253704 0.000000 33.147579
RightShoulder -17.363246 6.977778 -19.443530
RightArm -9.178743 -14.274648 64.213309
RightForeArm -24.759792 0.000000 59.515422
RightHand -1.478450 0.000000 0.049047
RightHandThumb1 -24.326973 -0.000000 -32.862282
LeftUpLeg -12.308188 4.029082 -1.632153
LeftLeg 2.123043 -0.000000 -0.000000
LeftFoot -12.951543 18.444654 -26.322300
LeftToeBase 3.433495 -0.000000 -0.000000
RightUpLeg -20.839994 -3.368649 -0.923358
RightLeg 27.314107 -0.000000 -0.000000
RightFoot -18.600811 -9.648443 -5.210406
RightToeBase -2.474579 -0.000000 0.000000
382
root -2.387308 32.542570 1.667064 12.760425 0.932916 4.540710
Spine -10.205048 2.411629 2.516907
Head -16.467194 -5.997175 11.807364
LeftShoulder -3.182314 13.742319 21.113802
LeftArm 42.469343 3.314234 -74.602929
LeftForeArm 20.204196 0.000000 89.590101
LeftHand -25.059580 0.000000 0.786986
LeftHandThumb1 -26.253704 0.000000 33.147579
RightShoulder -17.061888 7.296640 -19.724977
RightArm -9.267325 -13.211245 63.385584
RightForeArm -24.450387 -0.000000 59.267429
RightHand -1.562455 -0.000000 -0.016023
RightHandThumb1 -24.326973 -0.000000 -32.862282
LeftUpLeg -13.017672 3.240889 -2.133584
LeftLeg 2.321323 -0.000000 -0.000000
LeftFoot -12.754153 18.754066 -26.477604
LeftToeBase 3.513970 -0.000000 -0.000000
RightUpLeg -21.666362 -3.747608 -1.434723
RightLeg 27.929435 -0.000000 -0.000000
RightFoot -18.679815 -9.999443 -5.308422
RightToeBase -2.466706 -0.000000 0.000000
